<?xml version="1.0" standalone="no"?>
<!DOCTYPE svg PUBLIC "-//W3C//DTD SVG 20010904//EN"
 "http://www.w3.org/TR/2001/REC-SVG-20010904/DTD/svg10.dtd">
<svg version="1.0" xmlns="http://www.w3.org/2000/svg"
 width="2162.000000pt" height="2048.000000pt" viewBox="0 0 2162.000000 2048.000000"
 preserveAspectRatio="xMidYMid meet">

<g transform="translate(0.000000,2048.000000) scale(0.100000,-0.100000)"
fill="#000000" stroke="none">
<path d="M3167 19760 c-1063 -103 -1941 -781 -2299 -1775 -355 -985 -98 -2090
658 -2826 165 -160 346 -299 524 -401 81 -47 284 -145 349 -169 48 -18 67 -30
74 -50 9 -21 26 -31 106 -57 920 -298 1940 -74 2663 585 384 349 666 820 798
1330 138 531 112 1093 -74 1604 -72 199 -100 255 -135 267 -23 8 -39 29 -72
94 -193 371 -548 750 -931 994 -243 155 -571 290 -849 349 -241 52 -598 76
-812 55z"/>
<path d="M17026 17685 c-715 -305 -1309 -555 -1320 -555 -12 -1 -456 68 -988
152 -532 84 -969 150 -972 148 -2 -3 -23 -129 -47 -280 -23 -151 -43 -276 -45
-278 -1 -2 -671 117 -1490 263 -819 147 -1601 287 -1739 311 -137 25 -1062
190 -2055 368 -993 177 -1806 319 -1808 316 -2 -4 10 -52 27 -107 230 -774
172 -1579 -166 -2330 -125 -277 -324 -583 -537 -823 -36 -41 -62 -77 -58 -80
4 -4 1642 -299 3640 -656 1998 -356 3637 -651 3641 -654 5 -3 -10 -121 -32
-262 -22 -142 -39 -259 -36 -261 2 -2 443 -72 979 -157 536 -84 984 -158 996
-164 11 -6 461 -425 999 -931 728 -685 983 -919 999 -918 24 3 3640 775 3644
778 3 2 -269 1278 -274 1284 -1 2 -670 -139 -1486 -314 -816 -174 -1488 -317
-1494 -318 -5 -1 -409 373 -896 831 -623 585 -885 838 -882 850 2 9 69 436
150 947 80 512 149 933 153 936 3 4 518 225 1144 492 l1138 485 1285 -809
c706 -445 1289 -810 1295 -812 9 -2 714 1103 707 1108 -12 9 -3169 1995 -3171
1995 -1 -1 -587 -250 -1301 -555z"/>
<path d="M5685 14663 c-467 -441 -1065 -743 -1695 -857 -214 -39 -349 -50
-580 -50 -229 0 -354 11 -569 50 -73 14 -135 23 -137 21 -3 -2 2599 -8303
2631 -8396 6 -16 2 -18 132 83 748 587 1761 898 2723 837 102 -7 195 -15 208
-18 14 -3 22 -1 22 8 0 18 -2630 8392 -2638 8401 -4 3 -47 -32 -97 -79z"/>
<path d="M7700 5693 c-1114 -87 -2105 -743 -2592 -1718 -143 -285 -240 -603
-283 -931 -24 -182 -45 -840 -52 -1667 l-6 -747 3189 2 3189 3 -1 770 c0 485
-5 844 -13 970 -6 110 -16 287 -21 392 -23 477 -131 885 -337 1273 -496 934
-1442 1551 -2533 1650 -106 9 -434 11 -540 3z"/>
</g>
</svg>
